# xmcd
#
# Track frame offsets: 
#        150
#        10375
#        23315
#        36725
#        49267
#        63490
#        74405
#        88465
#        103740
#        112667
#        120995
#        134890
#
# Disc length: 1912 seconds
#
# Revision: 2
# Processed by: cddbd v1.5.2PL0 Copyright (c) Steve Scherf et al.
# Submitted via: ExactAudioCopy v1.3
#
DISCID=ab07760c
DTITLE=Stompin' Tom Connors - Love and Laughter
DYEAR=1971
DGENRE=Country
TTITLE0=Oh, Laura
TTITLE1=The Isles of Magdalen
TTITLE2=Fire In the Mine
TTITLE3=I Can Still Face the Moon
TTITLE4=The Bug Song
TTITLE5=The Moon-man Newfie
TTITLE6=Roving All Over the Land
TTITLE7=Movin' In (From Montreal By Train)
TTITLE8=Benny the Bum
TTITLE9=Twice As Blue
TTITLE10=Little Wawa
TTITLE11=Rubberhead
EXTD=
EXTT0=
EXTT1=
EXTT2=
EXTT3=
EXTT4=
EXTT5=
EXTT6=
EXTT7=
EXTT8=
EXTT9=
EXTT10=
EXTT11=
PLAYORDER=
